<svg xmlns="http://www.w3.org/2000/svg" xmlns:xlink="http://www.w3.org/1999/xlink" fill="none" version="1.1" width="22" height="20.2179012298584" viewBox="0 0 22 20.2179012298584"><g><path d="M11,0C17.0751,0,22,3.83848,22,8.57476C22,13.31,17.0751,17.1485,11,17.1485C10.3951,17.1488,9.79076,17.1103,9.19076,17.0332L4.57286,20.0535C4.048,20.3311,3.86257,20.3008,4.07838,19.6209L5.01286,15.7677C1.99571,14.2382,0,11.5877,0,8.57476C0,3.83952,4.92486,0,11,0ZM17.1883,8.44381L18.7283,6.952C18.913,6.76019,18.9126,6.45655,18.7275,6.26518C18.5423,6.07381,18.2388,6.06344,18.041,6.24171L16.0212,8.19657L16.0212,6.58114C16.0212,6.30805,15.7999,6.08667,15.5268,6.08667C15.2537,6.08667,15.0323,6.30805,15.0323,6.58114L15.0323,9.2599C15.0138,9.33632,15.0138,9.41606,15.0323,9.49248L15.0323,11C15.0323,11.2731,15.2537,11.4945,15.5268,11.4945C15.7999,11.4945,16.0212,11.2731,16.0212,11L16.0212,9.5721L16.4686,9.13943L17.9646,11.2692C18.1215,11.4932,18.4304,11.5473,18.6542,11.3901C18.878,11.2329,18.9318,10.924,18.7744,10.7004L17.1883,8.44276L17.1883,8.44381ZM14.0894,10.4594L12.5599,10.4594L12.5599,6.59686C12.5477,6.33289,12.3302,6.12514,12.066,6.12514C11.8017,6.12514,11.5842,6.33289,11.572,6.59686L11.572,10.9539C11.572,11.2263,11.792,11.4484,12.0654,11.4484L14.0894,11.4484C14.3625,11.4484,14.5839,11.227,14.5839,10.9539C14.5839,10.6808,14.3625,10.4594,14.0894,10.4594ZM7.95352,9.31543L8.68267,7.52714L9.35105,9.31543L7.95352,9.31543ZM10.5967,9.82667L10.5988,9.80991C10.5985,9.68533,10.551,9.56551,10.4657,9.47467L9.3699,6.54133C9.27584,6.25509,9.01409,6.05721,8.71305,6.04476C8.40983,6.04343,8.13743,6.22989,8.02895,6.51305L6.28886,10.7821C6.18577,11.0349,6.30704,11.3234,6.55978,11.4266C6.81251,11.5299,7.10109,11.4088,7.20447,11.1561L7.55019,10.3044L9.71876,10.3044L10.032,11.1425C10.1217,11.4065,10.4119,11.5441,10.6731,11.4466C10.9343,11.3491,11.0633,11.055,10.9581,10.7968L10.5967,9.82667ZM7.11648,6.6021C7.11648,6.32941,6.89573,6.1082,6.62305,6.10762L3.22352,6.10762C2.95043,6.10762,2.72905,6.329,2.72905,6.6021C2.72905,6.87519,2.95043,7.09657,3.22352,7.09657L4.43876,7.09657L4.43876,11.0105C4.43876,11.2836,4.66015,11.505,4.93324,11.505C5.20633,11.505,5.42771,11.2836,5.42771,11.0105L5.42771,7.09657L6.622,7.09657C6.89543,7.09657,7.11648,6.87448,7.11648,6.6021Z" fill="#FFFFFF" fill-opacity="1"/></g></svg>